<svg width="1920" height="932" viewBox="0 0 1920 932" fill="none" xmlns="http://www.w3.org/2000/svg">
<g clip-path="url(#clip0_706_3982)">
<path d="M1016.52 15.7049C1087.57 -37.7061 1155.16 -48.4769 1219.3 -16.6075C1283.43 15.2619 1325.78 2.54079 1346.36 -54.7709C1366.94 -112.083 1408.18 -127.091 1470.08 -99.7949C1531.97 -72.4992 1571.67 -90.6687 1589.16 -154.303C1606.65 -217.938 1652.22 -224.067 1725.88 -172.692C1799.54 -121.317 1861.29 -94.3301 1911.12 -91.7327C1960.96 -89.1353 1984.16 -141.074 1980.73 -247.549C1977.29 -354.024 2016.47 -373.265 2098.24 -305.271C2180.01 -237.278 2202.9 -240.14 2166.9 -313.859M1003.39 844.01C1078.04 893.928 1138.58 918.955 1185.02 919.092C1231.46 919.229 1267.26 948.357 1292.41 1006.48C1317.55 1064.59 1358.15 1080.65 1414.19 1054.65C1470.23 1028.65 1504.7 1061.37 1517.61 1152.81C1530.53 1244.25 1576.35 1246.06 1655.09 1158.25C1733.83 1070.43 1782.07 1065.65 1799.83 1143.88C1817.6 1222.12 1846.94 1268.81 1887.87 1283.95C1928.8 1299.09 1972.36 1307.09 2018.54 1307.94C2064.72 1308.78 2090.72 1301.27 2096.54 1285.41M1016.25 34.9799C1088.73 -16.1844 1156.34 -26.0081 1219.08 5.50876C1281.83 37.0256 1324.51 25.3134 1347.12 -29.628C1369.72 -84.5693 1411.21 -98.8416 1471.58 -72.4449C1531.95 -46.0483 1572.18 -63.0413 1592.26 -123.424C1612.34 -183.807 1657.74 -189.672 1728.44 -141.018C1799.14 -92.3646 1859.6 -65.7725 1909.82 -61.2419C1960.04 -56.7112 1984.98 -106.631 1984.64 -211C1984.3 -315.37 2023.76 -334.001 2103.03 -266.893C2182.3 -199.785 2205 -202.716 2171.12 -275.687M1015.99 54.2501C1089.83 5.36761 1157.45 -3.51224 1218.85 27.6105C1280.25 58.7333 1323.23 48.0376 1347.78 -4.47641C1372.34 -56.9905 1414.06 -70.523 1472.97 -45.0741C1531.87 -19.6252 1572.59 -35.4281 1595.14 -92.4829C1617.7 -149.538 1662.92 -155.147 1730.8 -109.31C1798.68 -63.4732 1857.89 -37.315 1908.44 -30.8354C1958.98 -24.3558 1985.59 -72.2084 1988.26 -174.393C1990.93 -276.578 2030.68 -294.595 2107.51 -228.443C2184.34 -162.291 2206.86 -165.3 2175.07 -237.469M1015.75 73.5165C1090.89 26.9494 1158.51 19.0101 1218.61 49.6986C1278.7 80.3872 1321.95 70.7153 1348.37 20.683C1374.78 -29.3493 1416.73 -42.1382 1474.22 -17.6838C1531.71 6.77062 1572.91 -7.82922 1597.81 -61.4833C1622.71 -115.137 1667.76 -120.5 1732.96 -77.5701C1798.16 -34.6405 1856.17 -8.9544 1906.98 -0.511684C1957.79 7.93104 1985.99 -37.809 1991.59 -137.732C1997.18 -237.654 2037.21 -255.053 2111.67 -189.926C2186.14 -124.8 2208.49 -127.894 2178.73 -199.208M1015.52 92.7802C1091.91 48.5604 1159.52 41.5584 1218.35 71.774C1277.17 101.99 1320.68 93.3482 1348.86 45.8496C1377.04 -1.64898 1419.2 -13.6907 1475.35 9.72458C1531.5 33.1398 1573.13 19.7553 1600.25 -30.429C1627.37 -80.6133 1672.26 -85.7373 1734.93 -45.801C1797.59 -5.8647 1854.43 19.3127 1905.45 29.7312C1956.47 40.1497 1986.2 -3.43411 1994.62 -101.02C2003.05 -198.606 2043.35 -215.382 2115.51 -151.348C2187.68 -87.3137 2209.88 -90.5004 2182.11 -160.908M1015.32 112.042C1092.88 70.2005 1160.46 64.1323 1218.07 93.8377C1275.67 123.543 1319.41 115.938 1349.27 71.0228C1379.13 26.1075 1421.49 14.8165 1476.35 37.1499C1531.22 59.4833 1573.26 47.3255 1602.47 0.67641C1631.69 -45.9727 1676.43 -50.8665 1736.69 -14.005C1796.96 22.8564 1852.68 47.4898 1903.85 59.8952C1955.03 72.3006 1986.2 30.9146 1997.37 -64.2629C2008.54 -159.44 2049.1 -175.59 2119.04 -112.712C2188.98 -49.8341 2211.03 -53.1205 2185.21 -122.571M1015.12 131.305C1093.8 91.8694 1161.35 86.7315 1217.78 115.891C1274.2 145.051 1318.14 138.488 1349.59 96.2024C1381.03 53.9171 1423.58 43.38 1477.23 64.591C1530.88 85.8021 1573.29 74.8816 1604.47 31.8296C1635.65 -11.2225 1680.25 -15.8938 1738.26 17.8157C1796.28 51.5252 1850.92 75.5809 1902.19 89.9828C1953.45 104.385 1986 65.2359 1999.82 -27.4636C2013.65 -120.163 2054.45 -135.683 2122.24 -74.023C2190.03 -12.363 2211.96 -15.7557 2188.03 -84.2012M1014.95 150.568C1094.67 113.567 1162.18 109.356 1217.47 137.935C1272.76 166.515 1316.87 160.999 1349.82 121.388C1382.76 81.777 1425.48 71.9967 1477.98 92.047C1530.47 112.097 1573.23 102.424 1606.24 63.0271C1639.26 23.6301 1683.72 19.1742 1739.64 49.6591C1795.55 80.144 1849.16 103.59 1900.46 119.996C1951.76 136.403 1985.6 99.5286 2001.98 9.37358C2018.36 -80.7814 2059.41 -95.6676 2125.12 -35.285C2190.83 25.0977 2212.65 21.5926 2190.56 -45.8004M1014.79 169.835C1095.5 135.294 1162.95 132.006 1217.15 159.972C1271.35 187.938 1315.62 183.474 1349.97 146.58C1384.31 109.685 1427.19 100.664 1478.6 119.517C1530.01 138.371 1573.07 129.954 1607.79 94.266C1642.51 58.5785 1686.85 54.331 1740.81 81.5234C1794.77 108.716 1847.39 131.521 1898.67 149.939C1949.94 168.356 1985 133.792 2003.85 46.2453C2022.69 -41.3012 2063.97 -55.5502 2127.68 3.49824C2191.39 62.5467 2213.11 58.9235 2192.82 -7.37148M1014.65 189.107C1096.27 157.049 1163.66 154.682 1216.81 182.004C1269.96 209.326 1314.37 205.917 1350.03 171.777C1385.68 137.638 1428.71 129.379 1479.1 147.001C1529.49 164.624 1572.83 157.471 1609.11 125.543C1645.4 93.6159 1689.62 89.5705 1741.78 113.407C1793.95 137.244 1845.62 159.379 1896.81 179.813C1948.01 200.246 1984.21 168.025 2005.42 83.1481C2026.63 -1.72874 2068.14 -15.3372 2129.92 42.3228C2191.71 99.9828 2213.33 96.2363 2194.79 31.0832M1014.52 208.388C1097 178.836 1164.31 177.384 1216.46 204.032C1268.62 230.68 1313.13 228.33 1350 196.982C1386.87 165.634 1430.03 158.14 1479.47 174.499C1528.91 190.859 1572.49 184.978 1610.21 156.857C1647.93 128.736 1692.05 124.887 1742.56 145.309C1793.08 165.731 1843.86 187.169 1894.9 209.622C1945.95 232.076 1983.22 202.228 2006.7 120.079C2030.18 37.9303 2071.9 24.9657 2131.84 81.1855C2191.79 137.405 2213.33 133.531 2196.48 69.562M1014.41 227.678C1097.67 200.653 1164.9 200.114 1216.1 226.06C1267.3 252.006 1311.9 250.718 1349.89 222.196C1387.87 193.673 1431.15 186.945 1479.71 202.012C1528.27 217.078 1572.06 212.476 1611.08 188.205C1650.1 163.933 1694.12 160.275 1743.14 177.229C1792.16 194.183 1842.09 214.897 1892.94 239.372C1943.78 263.846 1982.03 236.401 2007.69 157.036C2033.34 77.6705 2075.26 65.3531 2133.44 120.084C2191.63 174.814 2213.11 170.807 2197.89 108.063M1014.32 246.984C1098.3 222.504 1165.43 222.873 1215.73 248.091C1266.03 273.309 1310.68 273.085 1349.69 247.419C1388.69 221.752 1432.07 215.792 1479.83 229.539C1527.58 243.286 1571.55 239.968 1611.73 219.585C1651.91 199.202 1695.84 195.729 1743.52 209.166C1791.21 222.602 1840.34 242.569 1890.92 269.065C1941.5 295.562 1980.65 270.545 2008.38 194.016C2036.1 117.487 2078.21 105.82 2134.72 159.015C2191.22 212.209 2212.65 208.067 2199.01 146.586M1014.25 266.307C1098.87 244.391 1165.9 245.665 1215.34 270.13C1264.78 294.594 1309.47 295.436 1349.4 272.654C1389.33 249.873 1432.8 244.682 1479.82 257.084C1526.83 269.485 1570.94 267.457 1612.14 250.998C1653.35 234.538 1697.2 231.246 1743.7 241.121C1790.21 250.996 1838.59 270.192 1888.85 298.709C1939.11 327.226 1979.08 304.663 2008.77 231.02C2038.46 157.377 2080.76 146.363 2135.67 197.978C2190.58 249.592 2211.98 245.31 2199.86 185.131M1014.19 285.655C1099.39 266.318 1166.31 268.493 1214.94 292.181C1263.58 315.87 1308.27 317.778 1349.03 297.906C1389.78 278.035 1433.33 273.616 1479.68 284.649C1526.03 295.683 1570.24 294.947 1612.33 282.443C1654.42 269.939 1698.2 266.823 1743.69 273.097C1789.17 279.371 1836.85 297.775 1886.73 328.31C1936.6 358.844 1977.32 338.756 2008.87 268.046C2040.43 197.336 2082.9 186.978 2136.3 236.972C2189.7 286.966 2211.07 282.542 2200.42 223.7M1014.14 305.035C1099.86 288.29 1166.65 291.362 1214.53 314.253C1262.41 337.143 1307.09 340.119 1348.57 323.18C1390.05 306.241 1433.66 302.595 1479.41 312.239C1525.17 321.884 1569.46 322.446 1612.29 313.923C1655.12 305.401 1698.85 302.459 1743.47 305.097C1788.1 307.736 1835.13 325.329 1884.56 357.876C1933.99 390.423 1975.36 372.83 2008.68 305.097C2042 237.364 2084.64 227.665 2136.61 275.999C2188.58 324.334 2209.94 319.766 2200.71 262.294M1014.12 324.455C1100.27 310.315 1166.93 314.281 1214.11 336.353C1261.28 358.426 1305.92 362.469 1348.02 348.484C1390.13 334.498 1433.79 331.624 1479.02 339.862C1524.25 348.1 1568.58 349.961 1612.02 345.443C1655.45 340.926 1699.13 338.154 1743.06 337.127C1786.99 336.1 1833.41 352.864 1882.34 387.419C1931.27 421.973 1973.22 406.893 2008.19 342.177C2043.16 277.462 2085.96 268.424 2136.59 315.064C2187.22 361.703 2208.59 356.988 2200.71 300.92M1014.1 343.93C1100.63 332.405 1167.15 337.261 1213.67 358.497C1260.19 379.733 1304.76 384.843 1347.39 373.828C1390.02 362.812 1433.72 360.712 1478.5 367.527C1523.28 374.343 1567.62 377.504 1611.52 377.011C1655.41 376.518 1699.06 373.914 1742.45 369.197C1785.83 364.48 1831.71 380.398 1880.08 416.952C1928.44 453.506 1970.89 440.954 2007.41 379.294C2043.93 317.635 2086.88 309.261 2136.25 354.172C2185.62 399.083 2207.02 394.221 2200.43 339.586M1014.1 363.476C1100.93 354.576 1167.3 360.317 1213.21 380.701C1259.13 401.084 1303.61 407.261 1346.66 399.23C1389.72 391.198 1433.45 389.872 1477.85 395.251C1522.25 400.63 1566.56 405.093 1610.78 408.64C1655 412.187 1698.62 409.747 1741.63 401.321C1784.65 392.894 1830.02 407.953 1877.77 446.497C1925.51 485.041 1968.36 475.029 2006.33 416.461C2044.29 357.892 2087.38 350.185 2135.58 393.337C2183.79 436.49 2205.22 431.48 2199.86 378.306M1014.11 383.083C1101.17 376.814 1167.38 383.437 1212.74 402.953C1258.1 422.469 1302.47 429.71 1345.85 424.675C1389.22 419.64 1432.96 419.088 1477.06 423.019C1521.17 426.951 1565.42 432.715 1609.81 440.313C1654.21 447.911 1697.81 445.634 1740.61 433.483C1783.41 421.332 1828.34 435.518 1875.4 476.042C1922.46 516.566 1965.65 509.105 2004.95 453.659C2044.25 398.214 2087.46 391.174 2134.59 432.542C2181.72 473.909 2203.19 468.75 2199.01 417.064M1014.11 402.691C1101.34 399.059 1167.38 406.56 1212.24 425.195C1257.1 443.831 1301.33 452.133 1344.93 450.103C1388.53 448.073 1432.26 448.295 1476.14 450.77C1520.01 453.245 1564.16 460.311 1608.6 471.966C1653.03 483.622 1696.63 481.507 1739.38 465.622C1782.13 449.736 1826.67 463.039 1872.99 505.53C1919.3 548.021 1962.73 543.119 2003.26 490.826C2043.78 438.532 2087.12 432.164 2133.26 471.72C2179.4 511.277 2200.93 505.969 2197.87 455.798M1014.12 422.299C1101.43 421.307 1167.3 429.683 1211.71 447.426C1256.12 465.169 1300.19 474.531 1343.91 475.512C1387.63 476.492 1431.35 477.489 1475.07 478.501C1518.79 479.513 1562.81 487.877 1607.14 503.594C1651.47 519.311 1695.07 517.357 1737.94 497.732C1780.8 478.107 1824.99 490.517 1870.51 534.961C1916.03 579.405 1959.61 577.07 2001.26 527.954C2042.9 478.838 2086.35 473.142 2131.59 510.866C2176.83 548.59 2198.44 543.135 2196.43 494.5M1014.12 441.908C1101.46 443.558 1167.14 452.803 1211.16 469.644C1255.17 486.486 1299.05 496.904 1342.79 500.898C1386.53 504.893 1430.22 506.663 1473.86 506.207C1517.5 505.752 1561.36 515.413 1605.44 535.19C1649.52 554.967 1693.14 553.174 1736.28 529.81C1779.42 506.446 1823.33 517.955 1867.98 564.337C1912.64 610.719 1956.3 610.953 1998.95 565.038C2041.61 519.122 2085.15 514.101 2129.58 549.974C2174.01 585.847 2195.72 580.245 2194.69 533.168M1014.13 461.516C1101.42 465.808 1166.9 475.92 1210.58 491.851C1254.25 507.782 1297.92 519.252 1341.57 526.261C1385.23 533.27 1428.87 535.813 1472.51 533.889C1516.15 531.964 1559.81 542.918 1603.5 566.751C1647.19 590.583 1690.83 588.951 1734.41 561.853C1778 534.755 1821.66 545.358 1865.4 593.66C1909.14 641.963 1952.79 644.767 1996.34 602.072C2039.9 559.377 2083.53 555.033 2127.24 589.038C2170.95 623.043 2192.76 617.296 2192.67 571.798M1014.14 481.124C1101.31 488.057 1166.59 499.031 1209.97 514.046C1253.35 529.061 1296.78 541.579 1340.25 551.6C1383.72 561.62 1427.31 564.934 1471.02 561.542C1514.73 558.149 1558.16 570.392 1601.32 598.271C1644.47 626.15 1688.15 624.678 1732.34 593.857C1776.53 563.035 1820.01 572.727 1862.77 622.932C1905.53 673.137 1949.09 678.51 1993.43 639.052C2037.77 599.595 2081.49 595.928 2124.57 628.052C2167.65 660.177 2189.58 654.287 2190.35 610.384M1014.14 500.732C1101.13 510.303 1166.19 522.135 1209.34 536.229C1252.48 550.324 1295.65 563.884 1338.84 576.911C1382.02 589.938 1425.54 594.023 1469.39 589.164C1513.25 584.306 1556.41 597.833 1598.89 629.745C1641.37 661.658 1685.09 660.349 1730.05 625.818C1775.01 591.288 1818.36 600.066 1860.09 652.153C1901.82 704.24 1945.19 712.18 1990.21 675.973C2035.24 639.766 2079.02 636.779 2121.56 667.012C2164.11 697.245 2186.17 691.215 2187.74 648.923M1014.15 520.34C1100.88 532.543 1165.72 545.23 1208.68 558.401C1251.64 571.571 1294.52 586.169 1337.32 602.194C1380.12 618.219 1423.55 623.073 1467.63 616.754C1511.7 610.436 1554.57 625.241 1596.23 661.169C1637.89 697.098 1681.67 695.953 1727.56 657.734C1773.45 619.515 1816.72 627.379 1857.35 681.326C1897.99 735.273 1941.1 745.774 1986.69 712.828C2032.28 679.883 2076.13 677.577 2118.22 705.91C2160.32 734.244 2182.53 728.078 2184.85 687.411M1014.15 539.948C1100.55 554.777 1165.17 568.314 1208 580.56C1250.83 592.806 1293.4 608.435 1335.71 627.447C1378.02 646.459 1421.36 652.08 1465.72 644.309C1510.09 636.538 1552.62 652.614 1593.33 692.538C1634.03 732.462 1677.88 731.483 1724.86 689.6C1771.85 647.717 1815.08 654.668 1854.57 710.453C1894.06 766.237 1936.82 779.291 1982.87 749.614C2028.92 719.937 2072.82 718.313 2114.56 744.743C2156.3 771.172 2178.66 764.873 2181.66 725.844M1014.16 559.557C1100.16 577.002 1164.54 591.386 1207.29 602.707C1250.04 614.029 1292.28 630.683 1334 652.668C1375.72 674.654 1418.95 681.04 1463.68 671.826C1508.41 662.613 1550.58 679.953 1590.19 723.847C1629.79 767.741 1673.72 766.93 1721.96 721.414C1770.2 675.898 1813.46 681.938 1851.74 739.535C1890.02 797.131 1932.36 812.728 1978.75 786.324C2025.15 759.92 2069.08 758.98 2110.56 783.503C2152.03 808.027 2174.58 801.598 2178.19 764.217M1014.16 579.165C1099.7 599.218 1163.83 614.444 1206.56 624.843C1249.28 635.243 1291.16 652.914 1332.19 677.856C1373.22 702.798 1416.33 709.948 1461.5 699.304C1506.68 688.66 1548.45 707.256 1586.81 755.091C1625.18 802.927 1669.19 802.287 1718.85 753.172C1768.5 704.057 1811.84 709.191 1848.86 768.574C1885.88 827.957 1927.7 846.083 1974.33 822.953C2020.97 799.824 2064.93 799.568 2106.23 822.187C2147.53 844.805 2170.27 838.252 2174.43 802.527M1014.17 598.773C1099.17 621.421 1163.05 637.485 1205.8 646.967C1248.55 656.449 1290.05 675.129 1330.29 703.009C1370.53 730.888 1413.5 738.798 1459.19 726.739C1504.88 714.68 1546.22 734.522 1583.2 786.266C1620.19 838.009 1664.3 837.544 1715.53 784.87C1766.76 732.196 1810.23 736.43 1845.93 797.571C1881.64 858.713 1922.86 879.355 1969.62 859.497C2016.38 839.64 2060.36 840.07 2101.58 860.787C2142.8 881.504 2165.73 874.832 2170.38 840.77M1014.18 618.381C1098.57 643.61 1162.19 660.509 1205.02 669.079C1247.85 677.648 1288.94 697.33 1328.29 728.125C1367.64 758.92 1410.46 767.588 1456.74 754.13C1503.02 740.672 1543.89 761.751 1579.36 817.366C1614.83 872.981 1659.04 872.694 1712.01 816.506C1764.98 760.318 1808.63 763.659 1842.96 826.53C1877.29 889.4 1917.84 912.541 1964.61 895.951C2011.38 879.361 2055.38 880.477 2096.6 899.299C2137.83 918.121 2160.98 911.335 2166.05 878.941M1014.18 637.989C1097.91 665.784 1161.25 683.514 1204.21 691.179C1247.17 698.844 1287.84 719.519 1326.2 753.203C1364.56 786.887 1407.22 796.311 1454.16 781.474C1501.1 766.637 1541.47 788.942 1575.28 848.387C1609.09 907.832 1653.43 907.728 1708.29 848.076C1763.15 788.423 1807.04 790.882 1839.94 855.451C1872.85 920.02 1912.63 945.639 1959.31 932.309C2005.98 918.978 2049.98 920.781 2091.31 937.718C2132.63 954.654 2156.01 947.761 2161.44 917.037M1014.19 657.598C1097.17 687.941 1160.23 706.497 1203.38 713.267C1246.53 720.036 1286.74 741.695 1324.02 778.241C1361.29 814.788 1403.77 824.964 1451.44 808.77C1499.11 792.575 1538.96 816.093 1570.98 879.324C1602.99 942.555 1647.46 942.639 1704.37 879.576C1761.28 816.514 1805.45 818.1 1836.87 884.336C1868.3 950.571 1907.25 978.648 1953.71 968.566C2000.18 958.483 2044.17 960.974 2085.68 976.037C2127.2 991.101 2150.82 984.106 2156.54 955.053M1014.19 677.206C1096.37 710.079 1159.14 729.458 1202.52 735.343C1245.91 741.228 1285.64 763.86 1321.74 803.238C1357.83 842.616 1400.12 853.542 1448.59 836.014C1497.07 818.486 1536.35 843.206 1566.44 910.173C1596.53 977.141 1641.13 977.418 1700.25 911.005C1759.36 844.591 1803.87 845.319 1833.76 913.187C1863.66 981.055 1901.68 1011.56 1947.83 1004.72C1993.98 997.869 2037.96 1001.05 2079.74 1014.25C2121.53 1027.46 2145.41 1020.37 2151.37 992.987M1014.2 696.814C1095.49 732.197 1157.98 752.395 1201.65 757.408C1245.31 762.42 1284.55 786.015 1319.37 828.192C1354.18 870.369 1396.26 882.04 1445.61 863.204C1494.96 844.369 1533.65 870.278 1561.68 940.929C1589.71 1011.58 1634.46 1012.06 1695.93 942.357C1757.4 872.657 1802.29 872.54 1830.6 942.005C1858.91 1011.47 1895.93 1044.39 1941.66 1040.76C1987.39 1037.13 2031.33 1040.99 2073.49 1052.36C2115.64 1063.72 2139.78 1056.55 2145.91 1030.83M1014.21 716.422C1094.56 754.292 1156.74 775.305 1200.74 779.46C1244.75 783.615 1283.47 808.162 1316.91 853.102C1350.34 898.041 1392.21 910.453 1442.5 890.34C1492.8 870.226 1530.86 897.308 1556.69 971.588C1582.53 1045.87 1627.43 1046.55 1691.41 973.63C1755.4 900.712 1800.73 899.767 1827.4 970.794C1854.07 1041.82 1890.01 1077.12 1935.2 1076.68C1980.4 1076.25 2024.3 1080.8 2066.91 1090.35C2109.52 1099.89 2133.94 1092.64 2140.18 1068.59M1013.25 739.453C1092.59 779.787 1154.46 801.611 1198.86 804.924C1243.25 808.237 1281.43 833.725 1313.39 881.388C1345.36 929.051 1386.99 942.201 1438.3 920.84C1489.61 899.478 1527.02 927.72 1550.53 1005.57C1574.03 1083.41 1619.1 1084.31 1685.74 1008.24C1752.39 932.182 1798.2 930.426 1823.19 1002.98C1848.18 1075.53 1882.95 1113.17 1927.51 1115.91C1972.06 1118.65 2015.91 1123.89 2059.07 1131.64C2102.22 1139.39 2126.93 1132.06 2133.21 1109.67M1011.19 765.688C1089.45 808.46 1151 831.09 1195.83 833.579C1240.67 836.068 1278.28 862.485 1308.68 912.83C1339.08 963.176 1380.47 977.06 1432.87 954.483C1485.26 931.906 1521.98 961.293 1543.02 1042.64C1564.07 1123.99 1609.32 1125.1 1678.77 1045.98C1748.22 966.847 1794.57 964.3 1817.82 1038.33C1841.08 1112.37 1874.61 1152.33 1918.41 1158.22C1962.22 1164.1 2006.02 1170.03 2049.8 1176.01C2093.58 1181.99 2118.59 1174.6 2124.85 1153.86M1008.85 791.866C1085.98 837.049 1147.2 860.482 1192.52 862.166C1237.84 863.849 1274.87 891.183 1303.61 944.167C1332.35 997.151 1373.49 1011.76 1427.03 988.008C1480.57 964.251 1516.57 994.766 1535.04 1079.55C1553.5 1164.34 1598.93 1165.68 1671.33 1083.56C1743.73 1001.45 1790.67 998.133 1812.14 1073.61C1833.61 1149.09 1865.82 1191.33 1908.77 1200.34C1951.73 1209.34 1995.45 1215.96 2039.95 1220.19C2084.44 1224.43 2109.78 1216.99 2115.95 1197.89M1006.25 817.976C1082.17 865.542 1143.06 889.774 1188.91 890.673C1234.77 891.572 1271.19 919.81 1298.18 975.386C1325.17 1030.96 1366.05 1046.3 1420.8 1021.4C1475.56 996.502 1510.82 1028.13 1526.56 1116.28C1542.31 1204.43 1587.94 1206 1663.44 1120.99C1738.94 1035.98 1786.5 1031.92 1806.14 1108.8C1825.78 1185.68 1856.6 1230.16 1898.59 1242.25C1940.59 1254.34 1984.23 1261.65 2029.53 1264.17C2074.82 1266.7 2100.49 1259.22 2106.52 1241.74" stroke="white" stroke-opacity="0.2" stroke-width="2"/>
</g>
<defs>
<clipPath id="clip0_706_3982">
<rect width="670" height="932" fill="white" transform="translate(1250)"/>
</clipPath>
</defs>
</svg>
