<svg width="127" height="52" viewBox="0 0 127 52" fill="none" xmlns="http://www.w3.org/2000/svg">
<path d="M65.5958 22.074C66.4581 21.1664 66.8903 19.9186 66.8903 18.3382C66.8903 16.7431 66.4581 15.4961 65.5958 14.5924C64.7334 13.6912 63.5048 13.2378 61.9098 13.2378H59.6746V23.4383H61.9098C63.5048 23.4383 64.7334 22.9833 65.5958 22.074ZM68.3043 21.975C67.7033 23.0041 66.8553 23.7921 65.7543 24.3371C64.6532 24.8846 63.3731 25.1587 61.9098 25.1587H57.4231V11.4209H61.9098C63.3731 11.4209 64.6532 11.7008 65.7543 12.2602C66.8553 12.8206 67.7033 13.6253 68.3043 14.6729C68.9032 15.7205 69.2036 16.9424 69.2036 18.3382C69.2036 19.7354 68.9032 20.9476 68.3043 21.975Z" fill="white"/>
<path d="M73.6909 13.1598V17.3315H78.4348V19.0704H73.6909V23.3988H79.0275V25.1587H71.4373V11.4001H79.0275V13.1598H73.6909Z" fill="white"/>
<path d="M90.5034 23.2195C90.1268 23.8411 89.5773 24.3418 88.8528 24.7221C88.1263 25.1047 87.2784 25.2961 86.3029 25.2961C84.891 25.2961 83.7385 24.9609 82.8432 24.2881C81.9479 23.6176 81.4993 22.6865 81.4993 21.5016H83.9113C83.9628 22.1061 84.1871 22.5885 84.5823 22.9437C84.9774 23.3 85.5517 23.4768 86.3029 23.4768C87.0788 23.4768 87.69 23.2798 88.1304 22.8843C88.5729 22.4895 88.7931 21.983 88.7931 21.3633C88.7931 20.8762 88.6573 20.4909 88.3877 20.2073C88.1181 19.9227 87.7785 19.7047 87.369 19.5545C86.9615 19.4024 86.4017 19.2416 85.6896 19.0704C84.7943 18.859 84.0698 18.6386 83.5162 18.4079C82.9626 18.1772 82.4872 17.809 82.092 17.3009C81.6969 16.7946 81.4993 16.1047 81.4993 15.2364C81.4993 14.4446 81.6969 13.7467 82.092 13.1398C82.4872 12.5343 83.0408 12.0649 83.7529 11.736C84.4629 11.4065 85.28 11.2416 86.2041 11.2416C87.548 11.2416 88.6306 11.5584 89.4559 12.1902C90.2791 12.8245 90.736 13.7403 90.8286 14.9382H88.3383C88.2848 14.4115 88.0605 13.9711 87.6653 13.6148C87.2702 13.2588 86.7433 13.0818 86.0847 13.0818C85.3994 13.0818 84.8457 13.2524 84.4238 13.594C84.0019 13.9381 83.792 14.4446 83.792 15.1174C83.792 15.6046 83.9258 15.9962 84.1975 16.292C84.4671 16.5888 84.8066 16.8129 85.2141 16.9658C85.6237 17.1177 86.1897 17.2784 86.9162 17.4488C87.7971 17.661 88.5153 17.8814 89.0689 18.1113C89.6226 18.342 90.0939 18.7047 90.4829 19.1982C90.8719 19.6928 91.0653 20.3752 91.0653 21.2444C91.0653 21.9437 90.878 22.6021 90.5034 23.2195Z" fill="white"/>
<path d="M95.9883 11.4209V25.1587H93.7346V11.4209H95.9883Z" fill="white"/>
<path d="M109.123 12.3204C110.264 13.0384 111.089 14.0554 111.603 15.3721H108.897C108.539 14.6888 108.045 14.1704 107.413 13.8222C106.781 13.4725 106.049 13.298 105.219 13.298C104.31 13.298 103.499 13.5015 102.789 13.9115C102.077 14.3182 101.519 14.8988 101.117 15.6504C100.716 16.4012 100.514 17.2719 100.514 18.26C100.514 19.2479 100.716 20.1226 101.117 20.8775C101.519 21.6374 102.077 22.2194 102.789 22.6269C103.499 23.0371 104.31 23.2404 105.219 23.2404C106.444 23.2404 107.442 22.8947 108.214 22.2033C108.986 21.5118 109.449 20.5729 109.607 19.3854H104.447V17.628H112.019V19.3854C111.873 20.454 111.494 21.4355 110.883 22.3312C110.27 23.2283 109.473 23.9422 108.492 24.4753C107.508 25.0106 106.417 25.2759 105.219 25.2759C103.927 25.2759 102.747 24.9777 101.681 24.3763C100.613 23.7774 99.7673 22.9436 99.1417 21.8778C98.514 20.81 98.2012 19.6034 98.2012 18.26C98.2012 16.9157 98.514 15.7099 99.1417 14.6415C99.7673 13.5738 100.617 12.7417 101.692 12.1411C102.764 11.5422 103.941 11.2415 105.219 11.2415C106.683 11.2415 107.983 11.6017 109.123 12.3204Z" fill="white"/>
<path d="M125.52 25.1587H123.266L116.487 14.8989V25.1587H114.233V11.4001H116.487L123.266 21.6391V11.4001H125.52V25.1587Z" fill="white"/>
<path d="M66.0449 39.4084C65.6395 40.0244 65.0673 40.5163 64.3285 40.8822C63.5875 41.2512 62.7499 41.4336 61.8176 41.4336C60.2864 41.4336 59.07 41.08 58.1686 40.37C57.2671 39.6618 56.8164 38.6535 56.8164 37.3464H60.2123C60.2987 38.3923 60.8338 38.9149 61.8176 38.9149C62.2765 38.9149 62.6388 38.7935 62.9001 38.5506C63.1615 38.308 63.2912 37.9888 63.2912 37.5893C63.2912 37.2419 63.1801 36.9556 62.9557 36.7315C62.7314 36.5071 62.4577 36.3343 62.1345 36.2089C61.8114 36.085 61.3442 35.9348 60.735 35.7594C59.9138 35.5376 59.2429 35.3068 58.7201 35.0704C58.1974 34.8333 57.7487 34.4731 57.3762 33.9876C57.0016 33.5019 56.8164 32.8557 56.8164 32.0468C56.8164 31.238 57.0263 30.5298 57.4503 29.9188C57.8743 29.3094 58.4485 28.8407 59.177 28.511C59.9035 28.1823 60.7103 28.015 61.5932 28.015C63.0483 28.015 64.2132 28.3367 65.0838 28.9766C65.9543 29.6181 66.4071 30.6286 66.4462 32.0098H62.9742C62.9248 31.5362 62.7725 31.1721 62.5173 30.9173C62.2621 30.664 61.9411 30.5362 61.5562 30.5362C61.1446 30.5362 60.8132 30.6416 60.558 30.8513C60.3028 31.0637 60.1752 31.3884 60.1752 31.8225C60.1752 32.1827 60.2863 32.4792 60.5107 32.7102C60.735 32.94 61.017 33.1193 61.3607 33.251C61.7023 33.3805 62.1654 33.5204 62.7499 33.6709C63.5834 33.908 64.2585 34.1378 64.775 34.3622C65.2916 34.5849 65.7342 34.9426 66.1005 35.4322C66.4668 35.9265 66.65 36.5827 66.65 37.4043C66.65 38.1246 66.4483 38.7935 66.0449 39.4084Z" fill="white"/>
<path d="M78.614 28.2024V30.6287H75.0309V41.3042H71.8388V30.6287H68.2742V28.2024H78.614Z" fill="white"/>
<path d="M83.6521 28.2023V36.0214C83.6521 36.8053 83.8455 37.4084 84.2304 37.8319C84.6153 38.2565 85.1833 38.4662 85.9283 38.4662C86.6754 38.4662 87.2476 38.2565 87.6469 37.8319C88.0441 37.4084 88.2437 36.8053 88.2437 36.0214V28.2023H91.4337V36.0214C91.4337 37.1799 91.1724 38.1655 90.6517 38.9808C90.1289 39.796 89.4436 40.407 88.5977 40.8186C87.7518 41.2278 86.8442 41.4336 85.8728 41.4336C84.9034 41.4336 84.004 41.2278 83.1767 40.8186C82.3493 40.407 81.6887 39.796 81.1988 38.9808C80.707 38.1655 80.46 37.1799 80.46 36.0214V28.2023H83.6521Z" fill="white"/>
<path d="M101.641 37.7581C102.339 37.0112 102.687 36.0087 102.687 34.7537C102.687 33.4956 102.339 32.4956 101.641 31.7487C100.944 31.0018 99.9868 30.6287 98.7684 30.6287H97.3503V38.8779H98.7684C99.9868 38.8779 100.944 38.5033 101.641 37.7581ZM105.011 38.1496C104.395 39.1457 103.543 39.9191 102.454 40.4729C101.366 41.027 100.137 41.3042 98.7684 41.3042H94.1582V28.2024H98.7684C100.149 28.2024 101.38 28.4765 102.463 29.024C103.545 29.5716 104.395 30.3434 105.011 31.337C105.626 32.3332 105.935 33.4715 105.935 34.7537C105.935 36.0215 105.626 37.1534 105.011 38.1496Z" fill="white"/>
<path d="M111.142 28.2024V41.3042H107.949V28.2024H111.142Z" fill="white"/>
<path d="M117.366 31.9729C116.738 32.6562 116.423 33.5719 116.423 34.7143C116.423 35.8607 116.738 36.7749 117.366 37.4574C117.994 38.1431 118.837 38.4848 119.895 38.4848C120.939 38.4848 121.776 38.1431 122.404 37.4574C123.032 36.7749 123.347 35.8607 123.347 34.7143C123.347 33.5719 123.032 32.6562 122.404 31.9729C121.776 31.2878 120.939 30.9462 119.895 30.9462C118.837 30.9462 117.994 31.2878 117.366 31.9729ZM123.281 28.8737C124.308 29.4452 125.117 30.2443 125.707 31.2629C126.298 32.2839 126.594 33.4344 126.594 34.7143C126.594 35.9965 126.296 37.1511 125.699 38.1777C125.1 39.2051 124.291 40.0034 123.273 40.5758C122.252 41.1483 121.126 41.4336 119.895 41.4336C118.662 41.4336 117.533 41.1483 116.508 40.5758C115.481 40.0034 114.668 39.2051 114.071 38.1777C113.474 37.1511 113.176 35.9965 113.176 34.7143C113.176 33.4344 113.474 32.2839 114.071 31.2629C114.668 30.2443 115.481 29.4452 116.508 28.8737C117.533 28.3013 118.662 28.015 119.895 28.015C121.126 28.015 122.254 28.3013 123.281 28.8737Z" fill="white"/>
<path d="M21.5198 30.4067C22.4398 29.4211 22.9008 28.0994 22.9008 26.4385C22.9008 24.7799 22.4398 23.4567 21.5198 22.4711C20.5999 21.4869 19.3362 20.9926 17.7268 20.9926H15.8539V31.8844H17.7268C19.3362 31.8844 20.5999 31.3923 21.5198 30.4067ZM25.9694 30.9253C25.1565 32.2382 24.0307 33.2615 22.5921 33.9915C21.1555 34.7223 19.5338 35.0889 17.7268 35.0889H11.6389V17.7889H17.7268C19.5503 17.7889 21.1761 18.1505 22.6045 18.8733C24.0348 19.5978 25.1565 20.6139 25.9694 21.9292C26.7824 23.2443 27.1899 24.7469 27.1899 26.4385C27.1899 28.114 26.7824 29.61 25.9694 30.9253Z" fill="white"/>
<path d="M41.6664 32.5881C41.1334 33.4016 40.376 34.0495 39.3984 34.5336C38.4229 35.0191 37.3177 35.262 36.0849 35.262C34.0639 35.262 32.4586 34.7925 31.2669 33.8559C30.0753 32.9201 29.4805 31.5903 29.4805 29.8636H33.9651C34.0803 31.2446 34.7863 31.9336 36.0849 31.9336C36.6921 31.9336 37.1695 31.7753 37.5132 31.4545C37.859 31.1336 38.0319 30.7117 38.0319 30.1842C38.0319 29.7261 37.8837 29.3474 37.5894 29.0506C37.293 28.7565 36.9308 28.5258 36.5048 28.361C36.0767 28.1961 35.4613 28.0008 34.6566 27.7709C33.572 27.4741 32.6849 27.1695 31.9934 26.8583C31.3039 26.5455 30.7133 26.0705 30.2193 25.4282C29.7275 24.7881 29.4805 23.9344 29.4805 22.8661C29.4805 21.7975 29.7604 20.8617 30.3181 20.057C30.8759 19.2522 31.6374 18.6307 32.5985 18.1958C33.5596 17.7618 34.6216 17.5438 35.7886 17.5438C37.7108 17.5438 39.2482 17.9659 40.3987 18.8116C41.5471 19.6575 42.1481 20.9928 42.1974 22.8169H37.6141C37.5482 22.1931 37.3465 21.7115 37.009 21.3739C36.6715 21.0387 36.2496 20.8697 35.7392 20.8697C35.1979 20.8697 34.7574 21.0097 34.422 21.2879C34.0844 21.5692 33.9157 21.9953 33.9157 22.5693C33.9157 23.0468 34.0638 23.4359 34.3602 23.7407C34.6566 24.0453 35.0291 24.2841 35.4819 24.457C35.9326 24.6274 36.5439 24.813 37.3177 25.0108C38.4167 25.3212 39.3079 25.626 39.9912 25.9225C40.6724 26.2168 41.2569 26.6904 41.7406 27.3383C42.2242 27.9887 42.4671 28.8553 42.4671 29.9399C42.4671 30.891 42.2015 31.7753 41.6664 32.5881Z" fill="white"/>
<path d="M24.8378 2.7625C12.0241 2.7625 1.59986 13.1863 1.59986 26.0005C1.59986 38.8146 12.0241 49.2384 24.8378 49.2384C37.6494 49.2384 48.0737 38.8146 48.0737 26.0005C48.0737 13.1863 37.6494 2.7625 24.8378 2.7625ZM24.8378 49.9692C11.6207 49.9692 0.867188 39.2173 0.867188 26.0005C0.867188 12.7836 11.6207 2.03167 24.8378 2.03167C38.0528 2.03167 48.8064 12.7836 48.8064 26.0005C48.8064 39.2173 38.0528 49.9692 24.8378 49.9692Z" fill="white"/>
<path d="M28.9003 2.7625C16.0866 2.7625 5.66236 13.1863 5.66236 26.0005C5.66236 38.8146 16.0866 49.2384 28.9003 49.2384C41.712 49.2384 52.1362 38.8146 52.1362 26.0005C52.1362 13.1863 41.712 2.7625 28.9003 2.7625ZM28.9003 49.9692C15.6833 49.9692 4.92969 39.2173 4.92969 26.0005C4.92969 12.7836 15.6833 2.03167 28.9003 2.03167C42.1154 2.03167 52.8689 12.7836 52.8689 26.0005C52.8689 39.2173 42.1154 49.9692 28.9003 49.9692Z" fill="white"/>
<path d="M26.8691 0.733025C14.0554 0.733025 3.63111 11.1571 3.63111 23.9687C3.63111 36.7828 14.0554 47.2067 26.8691 47.2067C39.6807 47.2067 50.1049 36.7828 50.1049 23.9687C50.1049 11.1571 39.6807 0.733025 26.8691 0.733025ZM26.8691 47.9375C13.652 47.9375 2.89844 37.1864 2.89844 23.9687C2.89844 10.7518 13.652 -7.24792e-05 26.8691 -7.24792e-05C40.0841 -7.24792e-05 50.8376 10.7518 50.8376 23.9687C50.8376 37.1864 40.0841 47.9375 26.8691 47.9375Z" fill="white"/>
<path d="M26.8691 4.79408C14.0554 4.79408 3.63111 15.2179 3.63111 28.032C3.63111 40.8437 14.0554 51.2677 26.8691 51.2677C39.6807 51.2677 50.1049 40.8437 50.1049 28.032C50.1049 15.2179 39.6807 4.79408 26.8691 4.79408ZM26.8691 52C13.652 52 2.89844 41.2489 2.89844 28.032C2.89844 14.8143 13.652 4.06325 26.8691 4.06325C40.0841 4.06325 50.8376 14.8143 50.8376 28.032C50.8376 41.2489 40.0841 52 26.8691 52Z" fill="white"/>
</svg>
