<svg width="114" height="52" viewBox="0 0 114 52" fill="none" xmlns="http://www.w3.org/2000/svg">
<path d="M27.3581 30.5272C28.111 29.7229 28.4865 28.6438 28.4865 27.2879C28.4865 25.9344 28.111 24.8539 27.3581 24.0486C26.6091 23.2435 25.5746 22.8403 24.2604 22.8403H22.7305V31.7357H24.2604C25.5746 31.7357 26.6091 31.3323 27.3581 30.5272ZM30.9911 30.9508C30.328 32.0235 29.4093 32.8608 28.2349 33.4551C27.0605 34.0527 25.7363 34.3523 24.2604 34.3523H19.2893V20.2235H24.2604C25.7503 20.2235 27.0765 20.5193 28.2449 21.1107C29.4113 21.7019 30.328 22.5329 30.9911 23.6056C31.6562 24.6799 31.9877 25.9078 31.9877 27.2879C31.9877 28.6564 31.6562 29.8765 30.9911 30.9508Z" fill="white"/>
<path d="M37.6019 22.8003V25.8399H42.1096V28.4543H37.6019V31.7357H42.7128V34.3523H34.1606V20.1838H42.7128V22.8003H37.6019Z" fill="white"/>
<path d="M55.3193 32.3095C54.8839 32.9741 54.2668 33.5038 53.4699 33.8995C52.671 34.2949 51.7683 34.4924 50.7617 34.4924C49.1119 34.4924 47.8017 34.1108 46.8291 33.3462C45.8564 32.5809 45.3691 31.495 45.3691 30.0843H49.032C49.1259 31.2134 49.7031 31.7758 50.7617 31.7758C51.259 31.7758 51.6484 31.6464 51.93 31.3825C52.2116 31.1213 52.3534 30.7772 52.3534 30.3482C52.3534 29.9729 52.2316 29.6631 51.9899 29.4213C51.7483 29.1802 51.4527 28.9921 51.1052 28.8581C50.7557 28.7246 50.2523 28.5623 49.5953 28.3751C48.7105 28.1333 47.9855 27.8858 47.4222 27.6299C46.859 27.3765 46.3757 26.987 45.9723 26.4636C45.5709 25.9401 45.3691 25.2435 45.3691 24.3705C45.3691 23.4997 45.5968 22.7344 46.0542 22.0775C46.5095 21.4206 47.1307 20.9135 47.9156 20.5578C48.7005 20.2021 49.5693 20.0241 50.5219 20.0241C52.0898 20.0241 53.344 20.3698 54.2847 21.0611C55.2234 21.7521 55.7128 22.8406 55.7527 24.3307H52.0099C51.956 23.8212 51.7922 23.428 51.5166 23.1542C51.2409 22.8788 50.8974 22.7407 50.482 22.7407C50.0386 22.7407 49.6791 22.8546 49.4055 23.0839C49.1279 23.3118 48.9921 23.6597 48.9921 24.1286C48.9921 24.5179 49.1119 24.8354 49.3536 25.0851C49.5953 25.3331 49.9008 25.5291 50.2703 25.6687C50.6378 25.8107 51.1371 25.9605 51.7682 26.1219C52.667 26.3755 53.396 26.6252 53.9512 26.867C54.5084 27.1089 54.9858 27.4941 55.3812 28.0232C55.7767 28.5529 55.9744 29.2597 55.9744 30.1461C55.9744 30.923 55.7567 31.6464 55.3193 32.3095Z" fill="white"/>
<path d="M62.1321 20.2235V34.3523H58.6909V20.2235H62.1321Z" fill="white"/>
<path d="M75.7551 21.2706C76.9754 22.1031 77.8282 23.2579 78.3115 24.7338H74.2052C73.9236 24.1822 73.5681 23.7868 73.1387 23.5457C72.7093 23.3038 72.186 23.1836 71.5689 23.1836C70.4285 23.1836 69.5197 23.5511 68.8427 24.2906C68.1656 25.0272 67.8261 26.0141 67.8261 27.2483C67.8261 28.4826 68.1656 29.4695 68.8427 30.206C69.5197 30.9456 70.4285 31.3131 71.5689 31.3131C72.3878 31.3131 73.0548 31.1086 73.5721 30.6998C74.0874 30.2901 74.4329 29.7449 74.6087 29.0598H70.6242V26.4433H78.3115V29.0598C78.1498 29.9049 77.7683 30.7435 77.1631 31.5743C76.56 32.4068 75.7751 33.098 74.8104 33.6473C73.8437 34.1965 72.7632 34.4719 71.5689 34.4719C70.2407 34.4719 69.0244 34.1645 67.918 33.5474C66.8095 32.9303 65.9347 32.0712 65.2916 30.9714C64.6465 29.8705 64.325 28.63 64.325 27.2483C64.325 25.8659 64.6465 24.6262 65.2916 23.5253C65.9347 22.4254 66.8095 21.5664 67.918 20.9493C69.0244 20.3337 70.2407 20.024 71.5689 20.024C73.1387 20.024 74.5348 20.4398 75.7551 21.2706Z" fill="white"/>
<path d="M93.1608 34.3523H89.7196L83.9656 25.4367V34.3523H80.5244V20.1838H83.9656L89.7196 29.0996V20.1838H93.1608V34.3523Z" fill="white"/>
<path d="M2.85807 50.0028H104.391V8.71629H2.85807V50.0028ZM106.388 52H0.86084V6.71907H106.388V52Z" fill="white"/>
<path d="M9.57486 43.2838H111.108V1.9973H9.57486V43.2838ZM113.105 45.281H7.57764V7.24792e-05H113.105V45.281Z" fill="white"/>
</svg>
