<svg width="166" height="44" viewBox="0 0 166 44" fill="none" xmlns="http://www.w3.org/2000/svg">
<path d="M76.5648 42.0691H1.78955V1.92923H76.5648V42.0691Z" fill="white"/>
<path d="M3.21918 40.6371H162.377V3.36287H3.21918V40.6371ZM165.239 43.5H0.356445V0.500004H165.239V43.5Z" fill="white"/>
<path d="M12.4349 13.3016V21.2312H15.4962C15.9142 21.2312 16.1931 21.1681 16.3314 21.0391C16.4709 20.9129 16.5403 20.6384 16.5403 20.2212V14.3089C16.5403 13.8917 16.4709 13.6199 16.3314 13.4909C16.1931 13.3647 15.9142 13.3016 15.4962 13.3016H12.4349ZM12.4349 23.7345V32.5371H9.3042V10.7599H16.4366C18.5937 10.7599 19.6713 11.7809 19.6713 13.8203V20.6384C19.6713 22.4033 18.894 23.4106 17.3404 23.6659L20.784 32.5371H17.4099L14.1397 23.7345H12.4349Z" fill="#0E0F11"/>
<path d="M26.2456 29.9954H32.5424V32.5371H23.0806V10.7599H32.2992V13.3016H26.2456V20.0126H31.2548V22.5543H26.2456V29.9954Z" fill="#0E0F11"/>
<path d="M43.8107 10.7599V13.3016H40.1577V32.5371H37.0269V13.3016H33.375V10.7599H43.8107Z" fill="#0E0F11"/>
<path d="M48.9256 13.3016V21.2312H51.9855C52.4038 21.2312 52.6824 21.1681 52.8208 21.0391C52.9602 20.9129 53.0299 20.6384 53.0299 20.2212V14.3089C53.0299 13.8917 52.9602 13.6199 52.8208 13.4909C52.6824 13.3647 52.4038 13.3016 51.9855 13.3016H48.9256ZM48.9256 23.7345V32.5371H45.7949V10.7599H52.9259C55.083 10.7599 56.1606 11.7809 56.1606 13.8203V20.6384C56.1606 22.4033 55.3833 23.4106 53.8309 23.6659L57.2737 32.5371H53.9006L50.6304 23.7345H48.9256Z" fill="#0E0F11"/>
<path d="M66.6313 28.988V14.3089C66.6313 13.8917 66.5616 13.6199 66.4232 13.4909C66.2838 13.3647 66.0049 13.3016 65.588 13.3016H63.57C63.1531 13.3016 62.8797 13.3647 62.7521 13.4909C62.6255 13.6199 62.561 13.8917 62.561 14.3089V28.988C62.561 29.4052 62.6255 29.6797 62.7521 29.806C62.8797 29.935 63.1531 29.9954 63.57 29.9954H65.588C66.0049 29.9954 66.2838 29.935 66.4232 29.806C66.5616 29.6797 66.6313 29.4052 66.6313 28.988ZM62.665 10.7599H66.5272C68.6833 10.7599 69.762 11.7809 69.762 13.8203V29.4739C69.762 31.516 68.6833 32.5371 66.5272 32.5371H62.665C60.4854 32.5371 59.396 31.516 59.396 29.4739V13.8203C59.396 11.7809 60.4854 10.7599 62.665 10.7599Z" fill="#0E0F11"/>
<path d="M91.4692 29.0567V14.2375C91.4692 13.8203 91.3995 13.5486 91.2601 13.4223C91.1206 13.2961 90.8431 13.2302 90.4248 13.2302H86.9809V30.0668H90.4248C90.8431 30.0668 91.1206 30.0036 91.2601 29.8746C91.3995 29.7483 91.4692 29.4739 91.4692 29.0567ZM83.8159 10.7599H91.3995C93.5556 10.7599 94.6343 11.7809 94.6343 13.8203V29.4739C94.6343 31.516 93.5556 32.5371 91.3995 32.5371H83.8159V10.7599Z" fill="white"/>
<path d="M101.245 29.9954H107.542V32.5371H98.0796V10.7599H107.298V13.3016H101.245V20.0126H106.254V22.5543H101.245V29.9954Z" fill="white"/>
<path d="M116.271 28.988V23.6659C116.271 23.2487 116.208 22.977 116.08 22.848C115.953 22.7217 115.681 22.6558 115.263 22.6558H112.688C110.578 22.6558 109.524 21.6265 109.524 19.5625V13.8203C109.524 11.7809 110.602 10.7599 112.758 10.7599H116.167C118.325 10.7599 119.402 11.7809 119.402 13.8203V17.0208H116.237V14.3089C116.237 13.8917 116.167 13.6199 116.028 13.4909C115.89 13.3647 115.611 13.3016 115.194 13.3016H113.732C113.315 13.3016 113.038 13.3647 112.897 13.4909C112.758 13.6199 112.688 13.8917 112.688 14.3089V19.1425C112.688 19.5624 112.758 19.8342 112.897 19.9604C113.038 20.0894 113.315 20.1526 113.732 20.1526H116.271C118.405 20.1526 119.472 21.1736 119.472 23.213V29.4739C119.472 31.516 118.382 32.5371 116.201 32.5371H112.827C110.671 32.5371 109.593 31.516 109.593 29.4739V26.2735H112.758V28.988C112.758 29.4052 112.827 29.6797 112.967 29.806C113.106 29.935 113.385 29.9954 113.802 29.9954H115.263C115.681 29.9954 115.953 29.935 116.08 29.806C116.208 29.6797 116.271 29.4052 116.271 28.988Z" fill="white"/>
<path d="M122.846 10.7599H125.977V32.5371H122.846V10.7599Z" fill="white"/>
<path d="M139.892 17.128H136.725V14.2378C136.725 13.8205 136.656 13.5488 136.516 13.4226C136.378 13.2963 136.099 13.2304 135.682 13.2304H133.908C133.491 13.2304 133.212 13.2963 133.072 13.4226C132.934 13.5488 132.864 13.8205 132.864 14.2378V29.0926C132.864 29.5098 132.934 29.7816 133.072 29.9106C133.212 30.0396 133.491 30.1027 133.908 30.1027H135.682C136.099 30.1027 136.378 30.0396 136.516 29.9106C136.656 29.7816 136.725 29.5098 136.725 29.0926V23.7704H134.986V21.3358H139.892V29.4741C139.892 31.5409 138.812 32.573 136.656 32.573H132.934C130.777 32.573 129.698 31.5409 129.698 29.4741V13.8205C129.698 11.7812 130.777 10.7601 132.934 10.7601H136.656C138.812 10.7601 139.892 11.7812 139.892 13.8205V17.128Z" fill="white"/>
<path d="M150.918 10.7599H153.806V32.5371H150.641L146.049 16.8122V32.5371H143.161V10.7599H146.467L150.918 26.0319V10.7599Z" fill="white"/>
</svg>
