<svg width="52" height="52" viewBox="0 0 52 52" fill="none" xmlns="http://www.w3.org/2000/svg">
<path d="M7.61245 7.61542C10.5153 4.71258 13.9299 2.64261 17.5688 1.40095L1.39648 17.5732C2.63968 13.9343 4.70961 10.5198 7.61245 7.61542Z" fill="white"/>
<path d="M31.0966 0.498938L0.500755 31.0947C-0.127758 27.9337 -0.161562 24.6744 0.388579 21.5026L21.4998 0.392914C24.6762 -0.163374 27.934 -0.129576 31.0966 0.498938Z" fill="white"/>
<path d="M40.0834 4.13776L4.13987 40.0813C2.79064 37.9914 1.77181 35.7555 1.07568 33.4427L33.4387 1.07973C35.7576 1.77125 37.9935 2.78854 40.0834 4.13776Z" fill="white"/>
<path d="M46.6494 10.1968L10.1942 46.6521C9.29826 45.9606 8.43616 45.2061 7.61249 44.3824C6.78882 43.5603 6.03429 42.6966 5.34277 41.8007L41.798 5.34548C42.6985 6.03239 43.5606 6.78844 44.3843 7.61058C45.2065 8.43425 45.9625 9.29632 46.6494 10.1968Z" fill="white"/>
<path d="M50.9157 18.5564L18.5526 50.9194C16.2445 50.2279 13.9994 49.2106 11.9141 47.8553L47.8576 11.9117C49.2068 14.0016 50.2303 16.2422 50.9157 18.5564Z" fill="white"/>
<path d="M51.6089 30.4998L30.4976 51.611C27.3212 52.1658 24.0573 52.1274 20.9009 51.4943L51.4967 20.8985C52.1252 24.0595 52.1682 27.3188 51.6089 30.4998Z" fill="white"/>
<path d="M44.3845 44.3873C41.4817 47.2901 38.0671 49.3616 34.4282 50.6033L50.599 34.431C49.3573 38.0699 47.2874 41.4844 44.3845 44.3873Z" fill="white"/>
<path d="M38.2221 38.216C31.4729 44.9667 20.5285 44.9667 13.7777 38.216C7.02852 31.4668 7.02852 20.5224 13.7777 13.7731C20.5285 7.02239 31.4729 7.02239 38.2221 13.7731C44.9729 20.5224 44.9729 31.4668 38.2221 38.216Z" fill="white"/>
<path d="M20.6651 28.4515L18.9255 23.2113L17.186 28.4515H20.6651ZM21.5672 31.176H16.284L15.468 33.6501H11.6523L16.7665 18.8932H21.1261L26.2203 33.6501H22.3847L21.5672 31.176Z" fill="#0E0F11"/>
<path d="M35.4852 30.4845C35.8063 30.191 35.9677 29.7869 35.9677 29.269C35.9677 28.7527 35.814 28.3393 35.5067 28.0319C35.1978 27.7246 34.8013 27.5709 34.3111 27.5709H31.565V30.924H34.2696C34.7583 30.924 35.164 30.778 35.4852 30.4845ZM31.565 24.8464H33.9131C34.4294 24.8464 34.8459 24.7126 35.1594 24.4468C35.4744 24.1825 35.6327 23.7906 35.6327 23.2743C35.6327 22.7426 35.4744 22.3415 35.1594 22.068C34.8459 21.796 34.4294 21.6592 33.9131 21.6592H31.565V24.8464ZM38.7338 27.4034C39.3208 28.0888 39.6143 28.8925 39.6143 29.8145C39.6143 30.987 39.1856 31.9198 38.325 32.6113C37.466 33.3044 36.2674 33.6501 34.7306 33.6501H27.9814V18.9346H34.3741C35.3807 18.9346 36.2535 19.1022 36.9942 19.4387C37.7349 19.7737 38.3004 20.2347 38.6923 20.8217C39.0841 21.4087 39.2793 22.0649 39.2793 22.7918C39.2793 23.6308 39.0242 24.3331 38.514 24.8986C38.0038 25.4641 37.2877 25.8883 36.3657 26.1664C37.3584 26.3062 38.1467 26.7196 38.7338 27.4034Z" fill="#0E0F11"/>
</svg>
