<svg width="171" height="52" viewBox="0 0 171 52" fill="none" xmlns="http://www.w3.org/2000/svg">
<path d="M77.3785 14.5999V32.1721H73.096V22.2608L69.0179 32.1721H65.8382L61.7572 22.2608V32.1721H57.4775V14.5999H62.3842L67.4393 26.714L72.4719 14.5999H77.3785Z" fill="white"/>
<path d="M85.4118 14.5999V32.1721H81.1321V14.5999H85.4118Z" fill="white"/>
<path d="M104.888 32.1721H100.608L93.4482 21.0824V32.1721H89.1685V14.5495H93.4482L100.608 25.6392V14.5495H104.888V32.1721Z" fill="white"/>
<path d="M112.924 14.5999V32.1721H108.644V14.5999H112.924Z" fill="white"/>
<path d="M136.578 14.5999V32.1721H132.298V22.2608L128.217 32.1721H125.04L120.96 22.2608V32.1721H116.677V14.5999H121.584L126.642 26.714L131.671 14.5999H136.578Z" fill="white"/>
<path d="M149.445 25.9639L147.368 19.7081L145.288 25.9639H149.445ZM150.522 29.2191H144.213L143.236 32.1721H138.682L144.79 14.5495H149.996L156.078 32.1721H151.496L150.522 29.2191Z" fill="white"/>
<path d="M162.46 28.9196H167.795V32.1721H158.18V14.5999H162.46V28.9196Z" fill="white"/>
<path d="M57.6763 37.5095C57.4048 37.8006 57.2705 38.1953 57.2705 38.6879C57.2705 39.1805 57.4048 39.5724 57.6763 39.8663C57.945 40.163 58.3089 40.3085 58.7624 40.3085C59.213 40.3085 59.5713 40.163 59.8428 39.8663C60.1115 39.5724 60.2487 39.1805 60.2487 38.6879C60.2487 38.1953 60.1115 37.8006 59.8428 37.5095C59.5713 37.2128 59.213 37.0672 58.7624 37.0672C58.3089 37.0672 57.945 37.2128 57.6763 37.5095ZM60.2179 36.1772C60.6601 36.4207 61.01 36.7649 61.2619 37.2044C61.5166 37.641 61.6454 38.1365 61.6454 38.6879C61.6454 39.2393 61.5166 39.7347 61.2591 40.1769C61.0016 40.6164 60.6545 40.9607 60.2151 41.207C59.7756 41.4533 59.2914 41.5764 58.7624 41.5764C58.2334 41.5764 57.7492 41.4533 57.3069 41.207C56.8647 40.9607 56.5148 40.6164 56.2573 40.1769C56.0026 39.7347 55.8738 39.2393 55.8738 38.6879C55.8738 38.1365 56.0026 37.641 56.2573 37.2044C56.5148 36.7649 56.8647 36.4207 57.3069 36.1772C57.7492 35.9309 58.2334 35.8077 58.7624 35.8077C59.2914 35.8077 59.7784 35.9309 60.2179 36.1772Z" fill="white"/>
<path d="M63.8988 38.2846H64.7497C64.9597 38.2846 65.122 38.2258 65.2452 38.0999C65.3655 37.9767 65.4243 37.8144 65.4243 37.6129C65.4243 37.4141 65.3627 37.2518 65.2396 37.123C65.1164 36.9943 64.9541 36.9299 64.7497 36.9299H63.8988V38.2846ZM65.3292 41.5203L64.0584 39.3287H63.8988V41.5203H62.5273V35.8859H64.7497C65.1892 35.8859 65.5643 35.967 65.8778 36.1266C66.1912 36.2861 66.4264 36.4988 66.5831 36.7619C66.7427 37.0223 66.8211 37.3078 66.8211 37.6129C66.8211 37.9375 66.7231 38.2566 66.5243 38.5673C66.3256 38.878 66.0009 39.0963 65.5531 39.2251L66.933 41.5203H65.3292Z" fill="white"/>
<path d="M69.2612 35.8859V41.5203H67.8896V35.8859H69.2612Z" fill="white"/>
<path d="M74.6941 36.3034C75.1812 36.6365 75.5199 37.0955 75.713 37.6861H74.0756C73.9636 37.465 73.8208 37.3082 73.6501 37.2103C73.4794 37.1151 73.2722 37.0675 73.0259 37.0675C72.5697 37.0675 72.2086 37.2131 71.9371 37.5098C71.6684 37.8009 71.5312 38.1955 71.5312 38.6882C71.5312 39.1808 71.6684 39.5726 71.9371 39.8665C72.2086 40.1632 72.5697 40.3088 73.0259 40.3088C73.3506 40.3088 73.6193 40.2276 73.8237 40.0653C74.028 39.9001 74.1679 39.6818 74.2379 39.4103H72.648V38.3662H75.713V39.4103C75.6486 39.7461 75.4974 40.0821 75.2567 40.4151C75.016 40.7454 74.7026 41.0197 74.3163 41.2408C73.9328 41.4592 73.5018 41.5684 73.0259 41.5684C72.4941 41.5684 72.0099 41.4452 71.5676 41.1989C71.1254 40.9554 70.7783 40.611 70.5208 40.1716C70.2633 39.7349 70.1345 39.2396 70.1345 38.6882C70.1345 38.1368 70.2633 37.6413 70.5208 37.2047C70.7783 36.7652 71.1254 36.421 71.5676 36.1775C72.0099 35.9311 72.4941 35.808 73.0259 35.808C73.6501 35.808 74.2071 35.9703 74.6941 36.3034Z" fill="white"/>
<path d="M77.969 35.8859V41.5203H76.5947V35.8859H77.969Z" fill="white"/>
<path d="M84.2139 41.5203H82.8396L80.5444 37.9655V41.5203H79.1729V35.8719H80.5444L82.8396 39.4238V35.8719H84.2139V41.5203Z" fill="white"/>
<path d="M88.3369 39.5302L87.6735 37.5233L87.0045 39.5302H88.3369ZM88.684 40.5742H86.6603L86.3468 41.5203H84.8857L86.8451 35.8719H88.5133L90.4642 41.5203H88.9975L88.684 40.5742Z" fill="white"/>
<path d="M92.5128 40.479H94.2201V41.5203H91.1384V35.8859H92.5128V40.479Z" fill="white"/>
<path d="M101.621 36.3034C102.108 36.6365 102.447 37.0955 102.64 37.6861H101.002C100.89 37.465 100.747 37.3082 100.577 37.2103C100.406 37.1151 100.199 37.0675 99.9526 37.0675C99.4963 37.0675 99.1353 37.2131 98.8638 37.5098C98.5951 37.8009 98.4607 38.1955 98.4607 38.6882C98.4607 39.1808 98.5951 39.5726 98.8638 39.8665C99.1353 40.1632 99.4963 40.3088 99.9526 40.3088C100.277 40.3088 100.546 40.2276 100.75 40.0653C100.957 39.9001 101.095 39.6818 101.165 39.4103H99.5747V38.3662H102.64V39.4103C102.575 39.7461 102.424 40.0821 102.183 40.4151C101.943 40.7454 101.629 41.0197 101.243 41.2408C100.859 41.4592 100.428 41.5684 99.9526 41.5684C99.4208 41.5684 98.9365 41.4452 98.4943 41.1989C98.0548 40.9554 97.705 40.611 97.4475 40.1716C97.19 39.7349 97.064 39.2396 97.064 38.6882C97.064 38.1368 97.19 37.6413 97.4475 37.2047C97.705 36.7652 98.0548 36.421 98.4943 36.1775C98.9365 35.9311 99.4208 35.808 99.9526 35.808C100.577 35.808 101.134 35.9703 101.621 36.3034Z" fill="white"/>
<path d="M104.896 36.9131V38.1251H106.693V39.1691H104.896V40.479H106.933V41.5203H103.524V35.8719H106.933V36.9131H104.896Z" fill="white"/>
<path d="M113.156 41.5203H111.782L109.486 37.9655V41.5203H108.115V35.8719H109.486L111.782 39.4238V35.8719H113.156V41.5203Z" fill="white"/>
<path d="M115.705 35.8861V39.2505C115.705 39.5864 115.789 39.8467 115.954 40.0286C116.122 40.2106 116.363 40.3001 116.685 40.3001C117.007 40.3001 117.253 40.2106 117.424 40.0286C117.595 39.8467 117.681 39.5864 117.681 39.2505V35.8861H119.053V39.2505C119.053 39.7459 118.941 40.1713 118.714 40.5212C118.49 40.8711 118.196 41.1342 117.833 41.3105C117.469 41.4897 117.077 41.5764 116.66 41.5764C116.245 41.5764 115.856 41.4897 115.501 41.3105C115.145 41.1342 114.863 40.8711 114.65 40.5212C114.44 40.1713 114.334 39.7459 114.334 39.2505V35.8861H115.705Z" fill="white"/>
<path d="M121.597 35.8859V41.5203H120.226V35.8859H121.597Z" fill="white"/>
<path d="M127.842 41.5203H126.468L124.175 37.9655V41.5203H122.801V35.8719H124.175L126.468 39.4238V35.8719H127.842V41.5203Z" fill="white"/>
<path d="M130.417 36.9131V38.1251H132.217V39.1691H130.417V40.479H132.458V41.5203H129.046V35.8719H132.458V36.9131H130.417Z" fill="white"/>
<path d="M137.518 39.8667C137.787 40.1634 138.151 40.309 138.604 40.309C139.052 40.309 139.413 40.1634 139.685 39.8667C139.954 39.5728 140.091 39.181 140.091 38.6883C140.091 38.1957 139.954 37.8011 139.685 37.51C139.413 37.2133 139.052 37.0677 138.604 37.0677C138.151 37.0677 137.787 37.2133 137.518 37.51C137.247 37.8011 137.113 38.1957 137.113 38.6883C137.113 39.181 137.247 39.5728 137.518 39.8667ZM139.906 42.4446L139.223 41.5125C139.007 41.5545 138.803 41.5769 138.604 41.5769C138.075 41.5769 137.591 41.4538 137.149 41.2074C136.707 40.9611 136.357 40.6168 136.099 40.1774C135.842 39.7351 135.716 39.2397 135.716 38.6883C135.716 38.1369 135.842 37.6415 136.099 37.2048C136.357 36.7654 136.707 36.4211 137.149 36.1776C137.591 35.9313 138.075 35.8081 138.604 35.8081C139.133 35.8081 139.62 35.9313 140.06 36.1776C140.502 36.4211 140.852 36.7654 141.104 37.2048C141.359 37.6415 141.487 38.1369 141.487 38.6883C141.487 39.1614 141.389 39.5924 141.202 39.9842C141.012 40.3761 140.748 40.7064 140.418 40.9667L141.566 42.4446H139.906Z" fill="white"/>
<path d="M143.766 35.8861V39.2505C143.766 39.5864 143.847 39.8467 144.012 40.0286C144.18 40.2106 144.423 40.3001 144.745 40.3001C145.064 40.3001 145.311 40.2106 145.481 40.0286C145.652 39.8467 145.739 39.5864 145.739 39.2505V35.8861H147.11V39.2505C147.11 39.7459 146.999 40.1713 146.775 40.5212C146.551 40.8711 146.257 41.1342 145.89 41.3105C145.526 41.4897 145.137 41.5764 144.72 41.5764C144.303 41.5764 143.917 41.4897 143.561 41.3105C143.203 41.1342 142.92 40.8711 142.71 40.5212C142.498 40.1713 142.391 39.7459 142.391 39.2505V35.8861H143.766Z" fill="white"/>
<path d="M151.205 39.5302L150.536 37.5233L149.873 39.5302H151.205ZM151.55 40.5742H149.526L149.212 41.5203H147.754L149.711 35.8719H151.382L153.333 41.5203H151.863L151.55 40.5742Z" fill="white"/>
<path d="M155.376 40.479H157.086V41.5203H154.004V35.8859H155.376V40.479Z" fill="white"/>
<path d="M159.222 35.8859V41.5203H157.85V35.8859H159.222Z" fill="white"/>
<path d="M164.487 35.8859V36.9299H162.947V41.5203H161.573V36.9299H160.042V35.8859H164.487Z" fill="white"/>
<path d="M170.099 35.8859L168.148 39.7065V41.5203H166.773V39.7065L164.823 35.8859H166.382L167.465 38.4301L168.54 35.8859H170.099Z" fill="white"/>
<path d="M40.2218 4.23767C36.1352 1.55902 31.2509 -3.8147e-06 26 -3.8147e-06C11.6411 -3.8147e-06 0 11.6411 0 26C0 40.3589 11.6411 52 26 52C31.2509 52 36.1352 50.441 40.2218 47.7623L25.7089 47.3928L41.3414 46.9898C42.4498 46.1781 43.4938 45.2824 44.4623 44.3083L25.7089 43.8269L45.3888 43.3203C46.0969 42.5281 46.7547 41.6912 47.3621 40.8152L25.7089 40.261L48.1066 39.6843C48.5852 38.9174 49.0247 38.1253 49.4221 37.3052L25.7089 36.695L49.9763 36.0736C50.2926 35.3235 50.5725 34.5566 50.8188 33.7757L25.7089 33.1319L51.1883 32.4769C51.3759 31.7407 51.5298 30.9907 51.6529 30.2321L25.7089 29.5659L51.8377 28.8942C51.9189 28.1637 51.9665 27.4219 51.9861 26.6745L25.7089 26L51.9861 25.3255C51.9665 24.5781 51.9189 23.8363 51.8377 23.1058L25.7089 22.4341L51.6529 21.7679C51.5298 21.0093 51.3759 20.2593 51.1883 19.5231L25.7089 18.8681L50.8188 18.2243C50.5725 17.4434 50.2926 16.6765 49.9763 15.9264L25.7089 15.305L49.4221 14.6948C49.0247 13.8747 48.5852 13.0826 48.1066 12.3157L25.7089 11.739L47.3621 11.1848C46.7547 10.3088 46.0969 9.47186 45.386 8.67974L25.7089 8.1731L44.4623 7.69168C43.4938 6.71762 42.4498 5.82192 41.3414 5.0102L25.7089 4.60716L40.2218 4.23767Z" fill="white"/>
</svg>
